<svg width="1200" height="630" viewBox="0 0 1200 630" fill="none" xmlns="http://www.w3.org/2000/svg">
  <defs>
    <linearGradient id="bg" x1="0%" y1="0%" x2="100%" y2="100%">
      <stop offset="0%" style="stop-color:#1A1A2E"/>
      <stop offset="50%" style="stop-color:#16213E"/>
      <stop offset="100%" style="stop-color:#0F3460"/>
    </linearGradient>
  </defs>

  <!-- Background -->
  <rect width="1200" height="630" fill="url(#bg)"/>

  <!-- Grid lines -->
  <g opacity="0.1" stroke="#4ECDC4" stroke-width="1">
    <line x1="0" y1="100" x2="1200" y2="100"/>
    <line x1="0" y1="200" x2="1200" y2="200"/>
    <line x1="0" y1="300" x2="1200" y2="300"/>
    <line x1="0" y1="400" x2="1200" y2="400"/>
    <line x1="0" y1="500" x2="1200" y2="500"/>
    <line x1="200" y1="0" x2="200" y2="630"/>
    <line x1="400" y1="0" x2="400" y2="630"/>
    <line x1="600" y1="0" x2="600" y2="630"/>
    <line x1="800" y1="0" x2="800" y2="630"/>
    <line x1="1000" y1="0" x2="1000" y2="630"/>
  </g>

  <!-- Title -->
  <text x="600" y="180" font-family="Arial Black, sans-serif" font-size="64" fill="#FF6B6B" text-anchor="middle" font-weight="bold">
    CRYPTO SHOOTER
  </text>
  <text x="600" y="240" font-family="Arial, sans-serif" font-size="28" fill="#4ECDC4" text-anchor="middle">
    Shoot Your Wallet Tokens &amp; NFTs!
  </text>

  <!-- Ship -->
  <path d="M600 280 L680 400 L600 470 L520 400 Z" fill="#4ECDC4"/>
  <ellipse cx="600" cy="360" rx="25" ry="45" fill="#FFE66D"/>
  <ellipse cx="540" cy="390" rx="15" ry="25" fill="#FF6B6B" opacity="0.7"/>
  <ellipse cx="660" cy="390" rx="15" ry="25" fill="#FF6B6B" opacity="0.7"/>
  <path d="M570 470 L600 540 L630 470" fill="#F97316"/>

  <!-- Floating tokens as enemies -->
  <g>
    <circle cx="200" cy="320" r="45" fill="#A855F7" opacity="0.9"/>
    <text x="200" y="330" font-size="24" fill="white" text-anchor="middle">ETH</text>
  </g>
  <g>
    <circle cx="1000" cy="280" r="55" fill="#EC4899" opacity="0.9"/>
    <text x="1000" y="290" font-size="24" fill="white" text-anchor="middle">NFT</text>
  </g>
  <g>
    <circle cx="280" cy="480" r="35" fill="#3B82F6" opacity="0.9"/>
    <text x="280" y="488" font-size="18" fill="white" text-anchor="middle">USDC</text>
  </g>
  <g>
    <circle cx="920" cy="450" r="40" fill="#22C55E" opacity="0.9"/>
    <text x="920" y="458" font-size="18" fill="white" text-anchor="middle">BRETT</text>
  </g>

  <!-- Bullets -->
  <rect x="595" y="200" width="10" height="30" rx="5" fill="#FFE66D"/>
  <rect x="580" y="230" width="8" height="25" rx="4" fill="#FFE66D" opacity="0.7"/>
  <rect x="612" y="230" width="8" height="25" rx="4" fill="#FFE66D" opacity="0.7"/>

  <!-- Play button hint -->
  <rect x="450" y="560" width="300" height="50" rx="25" fill="#FF6B6B"/>
  <text x="600" y="593" font-family="Arial, sans-serif" font-size="24" fill="white" text-anchor="middle" font-weight="bold">
    🎮 Play Now in Warpcast!
  </text>

  <!-- Stars -->
  <circle cx="100" cy="100" r="4" fill="#FFE66D"/>
  <circle cx="1100" cy="80" r="5" fill="#FFE66D"/>
  <circle cx="80" cy="500" r="3" fill="#FFE66D"/>
  <circle cx="1120" cy="550" r="4" fill="#FFE66D"/>
</svg>
