<svg width="1200" height="630" viewBox="0 0 1200 630" fill="none" xmlns="http://www.w3.org/2000/svg">
  <defs>
    <linearGradient id="bg" x1="0%" y1="0%" x2="100%" y2="100%">
      <stop offset="0%" style="stop-color:#1A1A2E"/>
      <stop offset="50%" style="stop-color:#16213E"/>
      <stop offset="100%" style="stop-color:#0F3460"/>
    </linearGradient>
  </defs>

  <!-- Background -->
  <rect width="1200" height="630" fill="url(#bg)"/>

  <!-- Grid lines -->
  <g opacity="0.1" stroke="#4ECDC4" stroke-width="1">
    <line x1="0" y1="100" x2="1200" y2="100"/>
    <line x1="0" y1="200" x2="1200" y2="200"/>
    <line x1="0" y1="300" x2="1200" y2="300"/>
    <line x1="0" y1="400" x2="1200" y2="400"/>
    <line x1="0" y1="500" x2="1200" y2="500"/>
    <line x1="200" y1="0" x2="200" y2="630"/>
    <line x1="400" y1="0" x2="400" y2="630"/>
    <line x1="600" y1="0" x2="600" y2="630"/>
    <line x1="800" y1="0" x2="800" y2="630"/>
    <line x1="1000" y1="0" x2="1000" y2="630"/>
  </g>

  <!-- Title -->
  <text x="600" y="200" font-family="Arial Black, sans-serif" font-size="72" fill="#FF6B6B" text-anchor="middle" font-weight="bold">
    CRYPTO SHOOTER
  </text>
  <text x="600" y="270" font-family="Arial, sans-serif" font-size="32" fill="#4ECDC4" text-anchor="middle">
    Shoot Your Tokens &amp; NFTs!
  </text>

  <!-- Ship -->
  <path d="M600 320 L660 420 L600 470 L540 420 Z" fill="#4ECDC4"/>
  <ellipse cx="600" cy="390" rx="20" ry="35" fill="#FFE66D"/>
  <path d="M575 470 L600 520 L625 470" fill="#F97316"/>

  <!-- Floating tokens -->
  <circle cx="200" cy="350" r="40" fill="#A855F7" opacity="0.8"/>
  <circle cx="1000" cy="300" r="50" fill="#EC4899" opacity="0.8"/>
  <circle cx="300" cy="500" r="30" fill="#3B82F6" opacity="0.8"/>
  <circle cx="900" cy="450" r="35" fill="#22C55E" opacity="0.8"/>

  <!-- Stars -->
  <circle cx="100" cy="100" r="4" fill="#FFE66D"/>
  <circle cx="1100" cy="80" r="5" fill="#FFE66D"/>
  <circle cx="150" cy="500" r="3" fill="#FFE66D"/>
  <circle cx="1050" cy="550" r="4" fill="#FFE66D"/>
  <circle cx="500" cy="100" r="3" fill="#FFE66D"/>
  <circle cx="700" cy="580" r="3" fill="#FFE66D"/>
</svg>
